<svg xmlns="http://www.w3.org/2000/svg" viewBox="0 0 200 200" width="200" height="200">
  <rect width="200" height="200" fill="#ffffff"/>
  <rect x="10" y="10" width="60" height="60" fill="#333333"/>
  <rect x="130" y="10" width="60" height="60" fill="#333333"/>
  <rect x="10" y="130" width="60" height="60" fill="#333333"/>
  <rect x="20" y="20" width="20" height="20" fill="#ffffff"/>
  <rect x="140" y="20" width="20" height="20" fill="#ffffff"/>
  <rect x="20" y="140" width="20" height="20" fill="#ffffff"/>
  <rect x="50" y="50" width="10" height="10" fill="#ffffff"/>
  <rect x="160" y="50" width="10" height="10" fill="#ffffff"/>
  <rect x="50" y="160" width="10" height="10" fill="#ffffff"/>
  <rect x="80" y="10" width="10" height="10" fill="#333333"/>
  <rect x="100" y="30" width="10" height="10" fill="#333333"/>
  <rect x="80" y="50" width="10" height="10" fill="#333333"/>
  <rect x="80" y="80" width="40" height="40" fill="#333333"/>
  <rect x="90" y="90" width="20" height="20" fill="#ffffff"/>
  <rect x="130" y="80" width="10" height="10" fill="#333333"/>
  <rect x="150" y="100" width="10" height="10" fill="#333333"/>
  <rect x="80" y="130" width="10" height="10" fill="#333333"/>
  <rect x="100" y="150" width="10" height="10" fill="#333333"/>
  <rect x="130" y="130" width="60" height="60" fill="#333333"/>
  <rect x="140" y="140" width="20" height="20" fill="#ffffff"/>
  <rect x="170" y="140" width="10" height="10" fill="#ffffff"/>
  <rect x="140" y="170" width="10" height="10" fill="#ffffff"/>
</svg>
